<svg viewBox="0 0 640 640" xmlns="http://www.w3.org/2000/svg"><g fill="none" fill-rule="evenodd"><path d="m0 0h162v162h-162z" fill="#ee538b"/><path d="m0 320h162v162h-162z" fill="#418cff"/><path d="m0 480h162v162h-162z" fill="#00bab6"/><path d="m0 160h162v162h-162z" fill="#a970ff"/><path d="m160 0h162v162h-162z" fill="#d7306d"/><path d="m160 320h162v162h-162z" fill="#0f6fff"/><path d="m160 480h162v162h-162z" fill="#009e9a"/><path d="m160 160h162v162h-162z" fill="#924cfc"/><path d="m320 0h162v162h-162z" fill="#a11950"/><path d="m320 320h162v162h-162z" fill="#054ada"/><path d="m320 480h162v162h-162z" fill="#008381"/><path d="m320 160h162v162h-162z" fill="#6e32c9"/><path d="m480 0h162v162h-162z" fill="#760a3a"/><path d="m480 320h162v162h-162z" fill="#0530ad"/><path d="m480 480h162v162h-162z" fill="#006161"/><path d="m480 160h162v162h-162z" fill="#4f2196"/></g></svg>