<svg height="52" viewBox="0 0 21 52" width="21" xmlns="http://www.w3.org/2000/svg"><g fill="none" fill-rule="evenodd"><path d="m10.4094946 13.114652c1.1346847 0 2.0543478-.9229427 2.0543478-2.061674s-.9196631-2.06167404-2.0543478-2.06167404c-1.13468482 0-2.05434786.92294274-2.05434786 2.06167404s.91966304 2.061674 2.05434786 2.061674" fill="#231f20"/><path d="m10.4094946 6.41421145c2.5528695 0 4.6222826 2.07679296 4.6222826 4.63876655 0 2.5619735-2.0694131 4.6387665-4.6222826 4.6387665-2.55309786 0-4.62228264-2.076793-4.62228264-4.6387665 0-2.56197359 2.06918478-4.63876655 4.62228264-4.63876655m0 10.30837005c3.6946304 0 6.8642608-2.3381674 8.2173913-5.6696035-1.3531305-3.33143615-4.5227609-5.66960355-8.2173913-5.66960355-3.69485873 0-6.86448917 2.3381674-8.21739134 5.66960355 1.35290217 3.3314361 4.52253261 5.6696035 8.21739134 5.6696035" fill="#231f20"/><g transform="translate(2.51087 .128969)"><path d="m.19482065.1003348h15.40760865v6.18490749h-15.40760865z"/><path d="m7.898625 2.67731278c3.0959022 0 5.8635652 1.40331277 7.7038043 3.60792951v-1.54625551c-1.5462391-2.77409691-4.4168478-4.63876652-7.7038043-4.63876652-3.28718478 0-6.15779348 1.86466961-7.70380435 4.63876652v1.54625551c1.84001087-2.20461674 4.60790218-3.60792951 7.70380435-3.60792951" fill="#231f20"/></g><path d="m10.4001359 51.8998943.3697826-1.0629075h-.7361413z" fill="#231f20"/><path d="m9.69574565 49.8708863h1.41225005l.3716086-1.0629074h-2.1556956z" fill="#231f20"/><path d="m8.9859913 47.8417639h2.8318044l.3718369-1.0629075h-3.57547825z" fill="#231f20"/><path d="m8.2760087 45.812733h4.251587l.3718369-1.0629074h-4.99526086z" fill="#231f20"/><path d="m9.40103804 40.6917868h-5.35363043v1.0629075h5.72181522z" fill="#231f20"/><path d="m11.7373793 39.7254802h7.1370327v-1.0629075h-6.7688479z" fill="#231f20"/><path d="m12.4404457 37.6964722h6.4339891v-1.0629074h-6.0658044z" fill="#231f20"/><path d="m0 51.8998943h20.8002717v-51.67059033h-20.8002717z"/><g fill="#231f20"><path d="m1.92926087 51.8998943h5.29519565v-1.0629075h-5.29519565z"/><path d="m1.92926087 49.870978h5.29519565v-1.0629075h-5.29519565z"/><path d="m4.04729348 47.8418326h3.17716304v-1.0629075h-3.17716304z"/><path d="m4.04729348 45.8126872h3.17716304v-1.0629075h-3.17716304z"/><path d="m4.04729348 43.7835419h3.17716304v-1.0629075h-3.17716304z"/><path d="m16.7562196 40.6917868h-5.3536305l-.3681848 1.0629075h5.7218153z"/><path d="m13.5790793 43.7836106h3.1771631v-1.0629075h-3.1771631-2.8795108l-.2976522.8592599-.2978804-.8592599h-2.8795109v.0861321l.34170652.9767754h5.67114128l.3417065-.9765463z"/><path d="m13.5790109 45.8126872h3.177163v-1.0629075h-3.177163z"/><path d="m13.5790109 47.8418326h3.177163v-1.0629075h-3.177163z"/><path d="m13.5790109 49.870978h5.2951956v-1.0629075h-5.2951956z"/><path d="m13.5790109 51.8998943h5.2951956v-1.0629075h-5.2951956z"/><path d="m1.9292837 39.7254802h7.1370326l-.36841304-1.0629075h-6.76861956z"/><path d="m7.99492826 36.6336335h-6.06557609v1.0629075h6.43376087z"/><path d="m10.0091478 20.4564564c0-.8523877-.68843476-1.5432775-1.53779345-1.5432775-.8493587 0-1.53802174.6908898-1.53802174 1.5432775s.68866304 1.5432775 1.53802174 1.5432775c.84935869 0 1.53779345-.6908898 1.53779345-1.5432775"/><path d="m12.3289859 18.9131101c-.849587 0-1.5377935.6908899-1.5377935 1.5432776 0 .8523876.6882065 1.5435066 1.5377935 1.5435066.8493587 0 1.5377934-.691119 1.5377934-1.5435066 0-.8523877-.6884347-1.5432776-1.5377934-1.5432776"/><path d="m5.29836848 29.680867 1.76354348-5.6194362-5.23014131 2.3202996c-1.05958695.4769339-1.83179348 1.3194714-1.83179348 2.5798414 0 1.4880705 1.21366305 2.7023965 2.69644566 2.7023965 1.42411956 0 2.26731521-.9820441 2.60194565-1.9831013"/><path d="m18.968387 26.3816388-5.2299131-2.3200705 1.7633152 5.619207c.3346305 1.0010573 1.1823913 1.9831014 2.6110761 1.9831014h.0029674c1.4825544 0 2.6843478-1.214326 2.6843478-2.7021674 0-1.2603701-.7719782-2.1029075-1.8317934-2.5800705"/><path d="m10.4001359 22.6498943c-1.33806525 0-2.48507612.7921409-3.01738047 1.9329339h6.04183697c-.5329891-1.1394185-1.6875326-1.9329339-3.0244565-1.9329339"/><path d="m7.06182065 26.1289692v1.8039647h6.67617395l.0004565-1.8039647z"/><path d="m13.7384511 29.4791894h-6.67663045v1.8039648h6.67617395z"/><path d="m13.4245924 32.8294097h-6.04183697c.53298914 1.1394185 1.68045653 1.9329339 3.01738047 1.9329339 1.3380652 0 2.4919239-.79237 3.0244565-1.9329339"/></g></g></svg>